<?xml version="1.0" encoding="UTF-8"?>
<svg id="Layer_1" xmlns="http://www.w3.org/2000/svg" viewBox="0 0 401.09 144.78">
  <defs>
    <style>
      .cls-1 {
        fill: #2158a0;
      }

      .cls-2 {
        fill: #3e6592;
      }

      .cls-3 {
        fill: #1d58a1;
      }

      .cls-4 {
        fill: #2f569e;
      }

      .cls-5 {
        fill: #1c57a0;
      }

      .cls-6 {
        fill: #2854a4;
      }

      .cls-7 {
        fill: #ec2526;
      }

      .cls-8 {
        fill: #6485b9;
      }

      .cls-9 {
        fill: #2a55a4;
      }

      .cls-10 {
        fill: #5678b3;
      }

      .cls-11 {
        fill: #3e69aa;
      }

      .cls-12 {
        fill: #fff;
      }

      .cls-13 {
        fill: #2e5a9f;
      }

      .cls-14 {
        fill: #1c4996;
      }

      .cls-15 {
        fill: #94b546;
      }

      .cls-16 {
        fill: #f0f2f7;
      }

      .cls-17 {
        fill: #a0c23b;
      }

      .cls-18 {
        fill: #295da3;
      }

      .cls-19 {
        fill: #225aa2;
      }

      .cls-20 {
        fill: #456baa;
      }

      .cls-21 {
        fill: #8fb144;
      }

      .cls-22 {
        fill: #3060a4;
      }

      .cls-23 {
        fill: #2159a1;
      }

      .cls-24 {
        fill: #235ba3;
      }

      .cls-25 {
        fill: #305ca4;
      }

      .cls-26 {
        fill: #235aa2;
      }

      .cls-27 {
        fill: #f6f7fa;
      }

      .cls-28 {
        fill: #f7f9fc;
      }

      .cls-29 {
        fill: #2159a2;
      }
    </style>
  </defs>
  <g id="oZJ0ed">
    <g>
      <path class="cls-12" d="M.09,144.68C.09,97.73.13,50.78,0,3.84,0,.64.64,0,3.84,0c131.13.1,262.26.1,393.4,0,3.19,0,3.85.64,3.84,3.83-.13,45.52-.15,91.04.02,136.56.01,3.67-.72,4.39-4.39,4.39-132.2-.12-264.41-.1-396.61-.1Z"/>
      <path class="cls-17" d="M313.96,27.43c4.1,3.93,8.57,7.6,9.26,13.82.55,4.94-.13,9.55-3.54,13.45-6.01-3.31-11-.33-16.18,2.4-4.04,2.13-7.13,5.96-11.95,6.65-9.05-1.72-12.86-6.01-13.53-15.27,4.48-1.96,6.34-5.12,4.63-9.95.99-2.61,1.68-5.4,3.04-7.81,4.06-7.16,11.23-9.28,22.96-7.12,2.29,2.62.14,5.03-.38,7.5-.69,3.27-2.24,6.29-3.13,9.51.01.75.9-.1.2.03-.22.04-.3-.16-.12-.51,2.43-4.56,2.96-10.43,8.73-12.69Z"/>
      <path class="cls-6" d="M291.56,63.75c5.69-4.56,11.65-8.65,18.5-11.35,3.87-1.53,7.17-1.61,9.63,2.3,4.21,14.88,1.6,29.56-1.02,45.95-6.5-15.51-17.08-25.99-27.1-36.9Z"/>
      <path class="cls-14" d="M243.38,108.19c-25.46.81-50.91,1.67-76.38,2.39-14.06.4-28.14.59-42.2.83-1.84.03-3.68-.18-6.37-.32,8.65-4.88,71.73-7.56,104.61-4.93,5.35,1.09,10.77.14,16.13.57,1.42.11,3.65-1.39,4.2,1.45Z"/>
      <path class="cls-29" d="M220.76,57.9c-2.72,5.12-5.32,10.32-8.21,15.35-1.7,2.95-.57,3.71,2.23,3.95,4.86.42,9.67-.84,14.54-.47-3.64,2.51-7.7,1.32-11.58,1.59-2.75.19-6.29-1.44-8.08,1.06-3.29,4.6-5.85,9.76-7.36,15.28-.34,1.26,1.2,1.9,2.71,2.11-.56.44-.8.79-1.01.78-2.56-.14-5.93,1.44-7.41-1.17-1.33-2.34,1.56-4.42,2.75-6.48,5.76-10.03,11.35-20.13,16.1-30.69,1.1-3.17,3.37-1.61,5.33-1.31Z"/>
      <path class="cls-24" d="M92.17,57.76c-13.87,7.12-22.66,24.04-20.37,39.61-5.91-2.91-6.46-8.15-5.1-13.11,3.56-13.03,11.05-22.96,24.41-27.5,1.13-.5,1.27.06,1.07,1Z"/>
      <path class="cls-9" d="M313.96,27.43c-3.95,4.07-5.46,9.69-9.31,14.8.08-7.01,3.32-12.56,4.01-18.63,1.47-2.79,2.89-5.6,4.43-8.35,1.17-2.08,2.87-3.65,5.38-3.8.98-.06,2.25.13,2.91.73.98.89-.07,1.88-.57,2.78-2.3,4.15-4.57,8.31-6.85,12.47Z"/>
      <path class="cls-3" d="M155.68,54.32c-3.4,5.94-6.82,11.86-10.21,17.81-3.26,5.73-6.19,11.61-8.23,17.9-.55,1.68-1.24,3.33-.85,5.19.17.83,1.67,1.97-.15,2.53-1.26.39-2.69-.09-3.07-1.46-.56-2-1.23-4.14-.27-6.18,6.05-12.87,13.07-25.16,22.78-35.79Z"/>
      <path class="cls-28" d="M276.6,84.87c-.21,2.37-1.53,4.13-3.12,5.74-2.28,3-3.71,7.23-8.85,6.08-2.54-5.02.76-8.7,3.09-12.44,1.16-1.86,2.71-3.65,4.65-4.92.89-.01,1.67-.24,2.15-1.07,4.11.73,4.54,2.11,2.07,6.61Z"/>
      <path class="cls-27" d="M165.35,79.3c.37-.45.74-.91,1.1-1.36,5.11-.62,4.29,2.73,3.91,5.8-1.64,2.88-3.22,5.8-4.97,8.62-2.42,1.91-3.71,5.97-8.06,4.22-2.05-7.95,2.88-12.66,8.02-17.27Z"/>
      <path class="cls-25" d="M243.38,108.19c-3.75-2.18-7.84-.47-11.73-1.03-2.86-.41-5.93,1-8.6-.99,19.28.02,38.57.03,57.85.05.37.18.5.36.37.54-.12.18-.25.26-.38.26-12.51.22-24.98,1.76-37.51,1.16Z"/>
      <path class="cls-7" d="M282.65,38.53c4.2,6.2,2.78,9.26-4.63,9.95-2.56-1.56-4.6-3.45-3.39-6.81,1.45-4.03,4.92-3.18,8.02-3.14Z"/>
      <path class="cls-16" d="M116.87,91.44c-1.43,1.8-2.65,3.87-5.36,3.95-1.52-3.24.25-8.86,4.1-12.39,1.44-1.32,2.92-2.62,4.59-3.68,1.09-.71,1.55-2.42,3.31-2.06,2.09,1.34,1.25,3.1.43,4.6-1.92,3.5-3.7,7.13-7.07,9.57Z"/>
      <path class="cls-24" d="M116.87,91.44c1.87-3.12,3.73-6.25,5.6-9.36.9-1.49,1.99-2.92,1.04-4.81,2.05.62,2.86-2.04,5.51-1.71-1.84,3.66-3.86,7.03-5.24,10.65-1.23,3.25-4.12,6.44-1.52,10.32.21,1.06-.11,1.58-1.27,1.29-4.01-.42-1.66-4.95-4.12-6.37Z"/>
      <path class="cls-5" d="M251.15,97.55c-2.51.33-5.38.09-4.7-3.49,1.26-6.64,4.88-12.09,9.95-16.62-1,6.8-7.91,11.96-5.25,20.1Z"/>
      <path class="cls-26" d="M165.35,79.3c-3.24,5.37-8.41,9.88-7.6,17.06.55.75.51,1.46-.17,2.11-5.91-1.18-2.74-5.14-2.55-8.22.13-2.05,3.6-3.2,1.55-5.81,0-.2,0-.41,0-.61,3.32-.74,5.22-4.23,8.77-4.52Z"/>
      <path class="cls-23" d="M237.42,77.2c-.31,8.61-6.76,13.82-11.22,20.14,2.47-7.42,6.17-14.15,11.22-20.14Z"/>
      <path class="cls-19" d="M272.38,79.34c-2.02,3.88-5.2,7.06-6.7,11.27-.67,1.87-1.14,3.69-.65,5.66.47.79.48,1.53-.26,2.18-4.5-.01-4.09-4.89-3.54-5.95,2.68-5.11,4.51-11.3,11.15-13.16Z"/>
      <path class="cls-24" d="M120.21,79.33c-3.54,4.03-6.86,8.16-8.81,13.3-.46,1.21,0,1.86.12,2.77-3.72,2.54-4.05,0-3.27-2.54,1.91-6.23,5.22-11.45,11.96-13.53Z"/>
      <path class="cls-1" d="M156.58,83.82c0,.2,0,.41,0,.61q-5.29.99-13.61,7.62c4.45-4.38.56-10.92,4.76-16.54.74,6.11,4.2,7.97,8.86,8.31Z"/>
      <path class="cls-13" d="M220.76,57.9c-1.8.33-3.94-.7-5.33,1.32-.96-.43-1.93-.87-2.89-1.3,8.59.32,16.8-2.27,25.31-2.56-5.11,4.38-11.33,2.07-17.08,2.54Z"/>
      <path class="cls-24" d="M169.32,84.67c0-2.65,2.3-6.27-2.86-6.73,3.07.24,3.69-3.72,6.94-3.94.11,4.04-2.43,8.4,1.34,11.83.31,1.02-.03,1.46-1.11,1.25-.91-.72-1.83-1.44-2.74-2.16-.59.36-1.12.28-1.59-.23Z"/>
      <path class="cls-22" d="M276.6,84.87c-.31-2.32,2.65-5.67-2.07-6.61,2.54-.56,2.92-4.49,6.56-4.03-.94,4.15-2.21,8.29,1.02,12.12-2.65,1.21-3.58-1.83-5.51-1.48Z"/>
      <path class="cls-24" d="M106.33,56.76q7.59,2.33,2.17,11.32c.4-4.85-.33-8.44-4.39-10.25-.05-2,1.1-1.5,2.22-1.07Z"/>
      <path class="cls-24" d="M94.45,94.4c5.41-3.16,9.25-8.03,13.75-12.24-1.71,6.75-6.89,10.29-12.61,13.33-1.16.44-1.35-.12-1.14-1.1Z"/>
      <path class="cls-18" d="M168.48,38.79c2.31-1.98,4.87-3.69,7.83-4.34,3.31-.73,5.65.23,4.99,4.59-4.22-2.55-8.06-1.1-11.87.64-1.1.53-1.18-.01-.95-.89Z"/>
      <path class="cls-24" d="M94.45,94.4c.38.37.76.73,1.14,1.1-6.19,3.32-12.65,4.71-19.6,2.59,6.44.13,12.71-.5,18.46-3.69Z"/>
      <path class="cls-8" d="M168.48,38.79c.32.3.63.59.95.89-3.95,3.01-7.31,6.66-10.97,10.03,2.48-4.48,5.8-8.12,10.03-10.92Z"/>
      <path class="cls-11" d="M240.41,80.35c1.69-2.23,3.52-2.78,5.36-3.27,1.02-.27,2.18-.31,2.8.72.51.86-.23,1.61-.69,2.34-.61.96-1.26,1.73-2.44.8-1.37-1.09-2.98-.69-5.04-.58Z"/>
      <path class="cls-24" d="M106.33,56.76c-.79.26-1.81.02-2.22,1.07-3.97-1.29-7.96-1.53-11.95-.07-.36-.33-.71-.66-1.07-1,5.08-1.66,10.15-1.86,15.23,0Z"/>
      <path class="cls-24" d="M264.76,98.44c.09-.72.17-1.45.26-2.17,4.63.83,5.44-4.07,8.46-5.65-.91,4.83-4.35,6.85-8.72,7.82Z"/>
      <path class="cls-20" d="M270.61,59.69c-2.01,3.44-4.48,6.19-8.73,6.25,2.91-2.08,5.82-4.17,8.73-6.25Z"/>
      <path class="cls-24" d="M173.64,87.07c.37-.42.74-.83,1.11-1.25,3.47,1.77,5.88-1.43,9.04-2.08-3.94,4.19-5.74,4.77-10.15,3.33Z"/>
      <path class="cls-24" d="M157.58,98.47c.06-.7.12-1.41.17-2.11,3.62.77,4.72-2.54,6.82-4.23.54-.5,1.06-.48,1.57.04-1.97,3.29-4.68,5.59-8.56,6.3Z"/>
      <path class="cls-10" d="M280.89,107.02c0-.27.01-.54.01-.81h11.61c0,.27,0,.54,0,.81h-11.63Z"/>
      <path class="cls-24" d="M166.14,92.17c-.52-.01-1.05-.03-1.57-.04,1.58-2.49,3.16-4.97,4.74-7.46.53.08,1.06.16,1.59.23-1.59,2.42-3.17,4.85-4.76,7.27Z"/>
      <path class="cls-24" d="M121,97.81c.42-.43.85-.86,1.27-1.29,1.95-.66,3.9-1.31,5.85-1.97-1.84,2.3-3.92,4.03-7.12,3.25Z"/>
      <path class="cls-15" d="M305.58,71.89c-.44-1.54-2.37-.56-3.25-2.2,4.97-1.16,9.9-1.38,14.8-1.86,1.98-.19,1.35,1.12,1.49,1.9.7,3.96.3,8.17-1.45,11.44-1.62,3.04-4.91,1.97-7.18-.54,1.09-1.42,3.12-.45,4.33-1.72-1.26-.89-2.13,1.33-3.35.41,1.19-4.28-3.14-2.69-4.52-4.24,1.81-1.64.46-2.42-.87-3.2Z"/>
      <path class="cls-21" d="M298.61,63.26h15.14c-5.92,2.42-10.51,3.13-15.14,0Z"/>
      <path class="cls-2" d="M310.97,79.32c.52-.47,1.24-.83,1.53-1.42.73-1.48,1.52-3.22,3.39-2.3,1.01.5.53,2.3.27,3.5-.46,2.1-1.78,2.3-3.61,1.64-.77-.27-1.69-.09-2.55-.12.32-.44.65-.87.97-1.31Z"/>
      <path class="cls-4" d="M305.58,71.89c2.06,1.7,5.25-3.84,6.18.37.82,3.7-4.24.39-5.31,2.83-1.13-.84-.89-2.05-.87-3.2Z"/>
    </g>
  </g>
</svg>